{
    "asset" : {
        "generator" : "Khronos glTF Blender I/O v1.5.17",
        "version" : "2.0"
    },
    "scene" : 0,
    "scenes" : [
        {
            "name" : "Scene",
            "nodes" : [
                0,
                1,
                2
            ]
        }
    ],
    "nodes" : [
        {
            "mesh" : 0,
            "name" : "SurfTorus",
            "rotation" : [
                0.7071068286895752,
                0,
                0,
                0.7071068286895752
            ]
        },
        {
            "name" : "Area",
            "scale" : [
                2.8152353763580322,
                2.8152353763580322,
                2.8152353763580322
            ],
            "translation" : [
                0,
                1.3026458024978638,
                0
            ]
        },
        {
            "name" : "Camera",
            "rotation" : [
                0.5649135112762451,
                0.17177382111549377,
                -0.12162283807992935,
                0.7978561520576477
            ],
            "scale" : [
                1,
                1,
                1.5299999713897705
            ],
            "translation" : [
                3.111764907836914,
                2.8722152709960938,
                7.409940719604492
            ]
        }
    ],
    "materials" : [
        {
            "doubleSided" : true,
            "name" : "orangeicon",
            "pbrMetallicRoughness" : {
                "baseColorFactor" : [
                    0.8000000715255737,
                    0.06456580013036728,
                    0,
                    1
                ],
                "metallicFactor" : 0,
                "roughnessFactor" : 0.5
            }
        }
    ],
    "meshes" : [
        {
            "name" : "SurfTorus",
            "primitives" : [
                {
                    "attributes" : {
                        "POSITION" : 0,
                        "NORMAL" : 1,
                        "TEXCOORD_0" : 2
                    },
                    "indices" : 3,
                    "material" : 0
                }
            ]
        }
    ],
    "accessors" : [
        {
            "bufferView" : 0,
            "componentType" : 5126,
            "count" : 3201,
            "max" : [
                1,
                0.2500000298023224,
                1.9904470443725586
            ],
            "min" : [
                -1.0000001192092896,
                -0.2500000298023224,
                -1
            ],
            "type" : "VEC3"
        },
        {
            "bufferView" : 1,
            "componentType" : 5126,
            "count" : 3201,
            "type" : "VEC3"
        },
        {
            "bufferView" : 2,
            "componentType" : 5126,
            "count" : 3201,
            "type" : "VEC2"
        },
        {
            "bufferView" : 3,
            "componentType" : 5123,
            "count" : 18432,
            "type" : "SCALAR"
        }
    ],
    "bufferViews" : [
        {
            "buffer" : 0,
            "byteLength" : 38412,
            "byteOffset" : 0
        },
        {
            "buffer" : 0,
            "byteLength" : 38412,
            "byteOffset" : 38412
        },
        {
            "buffer" : 0,
            "byteLength" : 25608,
            "byteOffset" : 76824
        },
        {
            "buffer" : 0,
            "byteLength" : 36864,
            "byteOffset" : 102432
        }
    ],
    "buffers" : [
        {
            "byteLength" : 139296,
            "uri" : "data:application/octet-stream;base64,"
        }
    ]
}
